<svg xmlns="http://www.w3.org/2000/svg" xmlns:xlink="http://www.w3.org/1999/xlink" viewBox="0 0 182.52 194.28"><defs><style>.cls-1,.cls-3{fill:#2c2c2c;}.cls-1,.cls-11,.cls-12,.cls-13,.cls-14,.cls-15,.cls-5,.cls-6,.cls-7,.cls-8,.cls-9{stroke:#2c2c2c;}.cls-1,.cls-11,.cls-12,.cls-14,.cls-15,.cls-5,.cls-6,.cls-7,.cls-8{stroke-miterlimit:10;}.cls-1,.cls-12{stroke-width:1.69px;}.cls-13,.cls-14,.cls-15,.cls-2{fill:#fdfefe;}.cls-4{fill:#1d1d1b;}.cls-12,.cls-5,.cls-6,.cls-7,.cls-8,.cls-9{fill:none;}.cls-13,.cls-5,.cls-9{stroke-width:3.37px;}.cls-14,.cls-6{stroke-width:1.27px;}.cls-7{stroke-width:1.33px;}.cls-8{stroke-width:2.25px;}.cls-13,.cls-9{stroke-linecap:round;stroke-linejoin:round;}.cls-10{clip-path:url(#clip-path);}.cls-11{fill:#fefefc;stroke-width:2.19px;}.cls-15{stroke-width:0.88px;}</style><clipPath id="clip-path"><path class="cls-1" d="M122.26,156.52c.33,7.7-9.34,14.37-21.61,14.89s-22.46-5.3-22.79-13a.37.37,0,0,0,0-.11,5.1,5.1,0,0,1,8.36-4c3.12,2.59,8.21,4.15,13.88,3.91s10.61-2.23,13.5-5.07a5.09,5.09,0,0,1,8.67,3.28Z"/></clipPath></defs><title>isotipo-3</title><g id="Capa_2" data-name="Capa 2"><g id="Capa_1-2" data-name="Capa 1"><path class="cls-2" d="M177.86,60.66A70.86,70.86,0,0,1,160,75.79a8.87,8.87,0,0,1-.57,5.2,30.37,30.37,0,0,1-11.82,13.82,28.93,28.93,0,0,1-7.27,3.25,106.38,106.38,0,0,1,2.8,15.47,103.31,103.31,0,0,1,.51,13.31,53.26,53.26,0,0,1,7.54,16.36s0,.14,0,.14l0,.17a35.87,35.87,0,0,1-12.39,36.76c-8,6.47-21.05,14-38.32,14-.69,0-1.39,0-2.08,0s-1.5-.07-2.24-.13A52,52,0,0,1,57.8,172.6a32,32,0,0,1-4.74,2.54,52.28,52.28,0,0,1-13.13,3.51,10.88,10.88,0,0,1-1.14.06,9,9,0,0,1-7.85-13.39,11.22,11.22,0,0,0,1.41-6.17A9.37,9.37,0,0,0,31,155.74a25.19,25.19,0,0,1-14-14.34,19.12,19.12,0,0,1-14.57-9c-5.07-8.66-2.13-20.11,6.71-26.07a6.73,6.73,0,0,1,.89-.53L40,90.25l.11-2.86L40.84,67a11.73,11.73,0,0,1,0-1.19l.25-6.11a88.5,88.5,0,0,1-12.91,8.84A10.93,10.93,0,0,1,12.23,56.11c3.45-12.34,11.19-29.87,28.41-43.37A79.24,79.24,0,0,1,53.56,4.51a41.18,41.18,0,0,1,39.67,1.2c.54.32,1.08.66,1.62,1,.71.47,1.39,1,2,1.43a10.5,10.5,0,0,1,4.41,3.14l1.78,2.35a47.45,47.45,0,0,1,8.07,11.6l11,22.42L157.1,29.54a9.1,9.1,0,0,1,2.71-.9,19.58,19.58,0,0,1,18.05,32Z"/><path class="cls-2" d="M172.06,42.59A10.67,10.67,0,0,1,171,54.88a62.34,62.34,0,0,1-15.89,13.36A62,62,0,0,1,132,76.18l0,.6-1.79-.06,4.9-5.47a28.09,28.09,0,0,1,2.17-2,4.86,4.86,0,0,0-4.54-8.37L82.8,88c-16.53,9-31.73,17.78-48.25,26.79a.19.19,0,0,0-.08.26l-.46.3a22.07,22.07,0,0,0-7.16,7.81,22.81,22.81,0,0,0-2.53,9c-1.45.13-2.89.25-4.34.36a10.36,10.36,0,0,1-9.75-4.7c-2.53-4.31-1.08-10.66,4-14.08L48.77,95.83l69.35-35.95,43.1-22.34A10.63,10.63,0,0,1,172.06,42.59Z"/><path class="cls-3" d="M131.94,76.78l19.17.66a21.12,21.12,0,0,1-22.76,12.69c-.11-.31-.24-.63-.36-.94l-19.74-5.06-1.42.64-.39-.1-48.53,22c-.72,2-5.35,6.42-4.28,12.18a24.38,24.38,0,0,0,4.18,9.78.59.59,0,0,1-.65.91A81.6,81.6,0,0,1,45.56,125c-6.53-3.15-7.27-6.76-11-9.92a.22.22,0,0,1-.05-.08.19.19,0,0,1,.08-.26C51.07,105.77,66.27,97,82.8,88l49.88-27.16a4.86,4.86,0,0,1,4.54,8.37,28.09,28.09,0,0,0-2.17,2l-4.9,5.47Z"/><path class="cls-4" d="M128,89.19c.12.31.25.63.36.94a19.69,19.69,0,0,1-2.17-.4l-19.35-5,1.42-.64Z"/><path class="cls-3" d="M114.91,53.35c1.07,2.17,2.13,4.35,3.21,6.53L48.77,95.83l.3-8.09L51,35.36A79.35,79.35,0,0,1,39.31,49.27a77.94,77.94,0,0,1-15.6,11.48,2,2,0,0,1-2.84-2.21c2.61-9.31,9.13-26,25.3-38.7a69.61,69.61,0,0,1,11.45-7.29,32,32,0,0,1,31,.86l1.3.83a38.29,38.29,0,0,1,13.18,15Q109,41.29,114.91,53.35Z"/><path class="cls-3" d="M108.25,112.55c3.85,0,7,4.2,7,9.39s-3.12,9.39-7,9.39-7-4.2-7-9.39S104.38,112.55,108.25,112.55Z"/><path class="cls-3" d="M84,117.25c3.86,0,7,4.2,7,9.38s-3.12,9.4-7,9.4-7-4.21-7-9.4S80.12,117.25,84,117.25Z"/><path class="cls-3" d="M59.6,157.24c.1,1,.19,2,.23,3-2,1.42-7,5.27-10.22,6.62a42.75,42.75,0,0,1-10.84,2.89,20.14,20.14,0,0,0,2.53-11.19c-.36-5.08-3.74-8.43-3.62-10.12a22.81,22.81,0,0,0,10.12-1.81q.42-.18.84-.39a22.84,22.84,0,0,0,7.83-6.11l.15,3.11A44.3,44.3,0,0,0,59.6,157.24Z"/><path class="cls-4" d="M57,138.8c.32,6.46,1.92,12.18,2.59,18.44a44.3,44.3,0,0,1-3-14l-.15-3.11a22.84,22.84,0,0,1-7.83,6.11C52.77,144.14,55.79,140.29,57,138.8Z"/><path class="cls-5" d="M37.68,148.43a16.43,16.43,0,0,1-13.36-16.26,22.81,22.81,0,0,1,2.53-9A22.07,22.07,0,0,1,34,115.34"/><path class="cls-5" d="M59.72,106.17l47.11-21.4,1.42-.64L128,89.19c.12.31.25.63.36.94a96.23,96.23,0,0,1,5.78,24.34,96.65,96.65,0,0,1,.36,15.17,44.06,44.06,0,0,1,7.95,15.89,2,2,0,0,1,.06.23,26.86,26.86,0,0,1-9.33,27.53c-7.61,6.14-19.24,12.51-34.44,12-.64,0-1.28-.05-1.9-.1A43.48,43.48,0,0,1,59.6,157.24a44.3,44.3,0,0,1-3-14l-.15-3.11a22.84,22.84,0,0,1-7.83,6.11"/><path class="cls-5" d="M118.12,59.88l43.1-22.34A10.58,10.58,0,0,1,171,54.88a62.34,62.34,0,0,1-15.89,13.36A62,62,0,0,1,132,76.18"/><path class="cls-5" d="M24.32,132.17c-1.45.13-2.89.25-4.34.36a10.36,10.36,0,0,1-9.75-4.7c-2.53-4.31-1.08-10.66,4-14.08L48.77,95.83"/><path class="cls-6" d="M48.64,146.23c4.13-2.09,7.15-5.94,8.37-7.43.32,6.46,1.92,12.18,2.59,18.44.1,1,.19,2,.23,3-2,1.42-7,5.27-10.22,6.62a42.75,42.75,0,0,1-10.84,2.89,20.14,20.14,0,0,0,2.53-11.19c-.36-5.08-3.74-8.43-3.62-10.12"/><path class="cls-5" d="M37.68,148.43a22.81,22.81,0,0,0,10.12-1.81q.42-.18.84-.39"/><path class="cls-5" d="M131.94,76.78l19.17.66a21.12,21.12,0,0,1-22.76,12.69,19.69,19.69,0,0,1-2.17-.4l-19.35-5-.39-.1-48.53,22c-.72,2-5.35,6.42-4.28,12.18a24.38,24.38,0,0,0,4.18,9.78.59.59,0,0,1-.65.91A81.6,81.6,0,0,1,45.56,125c-6.53-3.15-7.27-6.76-11-9.92a.22.22,0,0,1-.05-.08.19.19,0,0,1,.08-.26C51.07,105.77,66.27,97,82.8,88l49.88-27.16a4.86,4.86,0,0,1,4.54,8.37,28.09,28.09,0,0,0-2.17,2l-4.9,5.47Z"/><path class="cls-6" d="M33.89,136.51a10.91,10.91,0,0,1,1.65-4.8,8.28,8.28,0,0,1,4.67-3.51"/><line class="cls-6" x1="42.02" y1="136.33" x2="35.54" y2="131.71"/><path class="cls-7" d="M96.84,116.69a20.8,20.8,0,0,1,1.71,8.38,20.51,20.51,0,0,1-.28,3.45c-1.23,7.72-6.51,13.53-12.85,13.53-7.25,0-13.12-7.61-13.12-17s5.87-17,13.12-17C90.31,108.09,94.58,111.55,96.84,116.69Z"/><path class="cls-7" d="M96.84,116.69c1.22-7.74,6.51-13.54,12.84-13.54,7.25,0,13.13,7.6,13.13,17s-5.88,17-13.13,17c-4.88,0-9.15-3.47-11.41-8.6"/><line class="cls-8" x1="101.77" y1="140.99" x2="106.93" y2="141.12"/><path class="cls-7" d="M91,126.63c0,5.19-3.12,9.4-7,9.4s-7-4.21-7-9.4,3.13-9.38,7-9.38S91,121.45,91,126.63Z"/><path class="cls-7" d="M115.22,121.94c0,5.19-3.12,9.39-7,9.39s-7-4.2-7-9.39,3.12-9.39,7-9.39S115.22,116.75,115.22,121.94Z"/><path class="cls-8" d="M67.49,115.08s1.68-14.45,21.19-14.21"/><path class="cls-8" d="M94.67,102.77s7-12.76,25-5.26"/><path class="cls-9" d="M51,35.36A79.35,79.35,0,0,1,39.31,49.27a77.94,77.94,0,0,1-15.6,11.48,2,2,0,0,1-2.84-2.21c2.61-9.31,9.13-26,25.3-38.7a69.61,69.61,0,0,1,11.45-7.29,32,32,0,0,1,31,.86l1.3.83a38.29,38.29,0,0,1,13.18,15Q109,41.29,114.91,53.35c1.07,2.17,2.13,4.35,3.21,6.53L48.77,95.83l.3-8.09L51,35.36"/><path class="cls-3" d="M122.26,156.52c.33,7.7-9.34,14.37-21.61,14.89s-22.46-5.3-22.79-13a.37.37,0,0,0,0-.11,5.1,5.1,0,0,1,8.36-4c3.12,2.59,8.21,4.15,13.88,3.91s10.61-2.23,13.5-5.07a5.09,5.09,0,0,1,8.67,3.28Z"/><g class="cls-10"><ellipse class="cls-11" cx="91.75" cy="166.98" rx="5.82" ry="10.64" transform="translate(-90.43 222.75) rotate(-78.23)"/></g><path class="cls-12" d="M122.26,156.52c.33,7.7-9.34,14.37-21.61,14.89s-22.46-5.3-22.79-13a.37.37,0,0,0,0-.11,5.1,5.1,0,0,1,8.36-4c3.12,2.59,8.21,4.15,13.88,3.91s10.61-2.23,13.5-5.07a5.09,5.09,0,0,1,8.67,3.28Z"/><polygon class="cls-13" points="114.91 53.34 49.07 87.74 48.77 95.83 118.12 59.88 114.91 53.34"/><path class="cls-14" d="M50.42,50.3l3,.13a2.21,2.21,0,0,0,1.89-.88l4.62-6.1a.42.42,0,0,1,.73.14l2,7.38a2.26,2.26,0,0,0,1.43,1.52L71.34,55a.42.42,0,0,1,.1.74l-6.39,4.21a2.28,2.28,0,0,0-1,1.83l-.15,7.65a.41.41,0,0,1-.67.31l-6-4.77a2.21,2.21,0,0,0-2-.39l-5.43,1.64.29-7.13Z"/><path class="cls-15" d="M100.8,25.6l-1.69,1.26a1.56,1.56,0,0,0-.63,1.31l.21,5.34a.3.3,0,0,1-.46.25l-4.36-3.09a1.54,1.54,0,0,0-1.44-.19l-5,1.84A.29.29,0,0,1,87,32l1.59-5.1a1.53,1.53,0,0,0-.26-1.43l-3.3-4.2a.29.29,0,0,1,.22-.47l5.35-.07A1.55,1.55,0,0,0,91.91,20l2.2-3.29,3,4Z"/></g></g></svg>